<?xml version="1.0" encoding="UTF-8"?>
<svg width="512px" height="512px" viewBox="0 0 512 512" version="1.1" xmlns="http://www.w3.org/2000/svg" xmlns:xlink="http://www.w3.org/1999/xlink">
    <title>Artboard</title>
    <g id="Artboard" stroke="none" stroke-width="1" fill="none" fill-rule="evenodd">
        <g id="Apple_logo_black" transform="translate(93, 56)" fill="#000000" fill-rule="nonzero">
            <path d="M315.588503,136.373637 C313.265938,138.173817 272.260656,161.256126 272.260656,212.581258 C272.260656,271.947195 324.438275,292.949295 326,293.469347 C325.759735,294.749475 317.710846,322.232223 298.48962,350.235024 C281.350694,374.877488 263.450927,399.479948 236.220857,399.479948 C208.990787,399.479948 201.983049,383.678368 170.548336,383.678368 C139.914507,383.678368 129.022479,400 104.114974,400 C79.2074684,400 61.8282766,377.19772 41.8462105,349.194919 C18.700651,316.311631 0,265.226523 0,216.741674 C0,138.973897 50.6158949,97.729773 100.430905,97.729773 C126.900135,97.729773 148.964501,115.091509 165.582852,115.091509 C181.400319,115.091509 206.067559,96.689669 236.180813,96.689669 C247.593416,96.689669 288.598698,97.729773 315.588503,136.373637 Z M221.885026,63.7663766 C234.338779,49.0049005 243.148508,28.5228523 243.148508,8.04080408 C243.148508,5.20052005 242.908242,2.32023202 242.387667,0 C222.125292,0.760076008 198.018671,13.4813481 183.482619,30.3230323 C172.070016,43.2843284 161.418253,63.7663766 161.418253,84.5284528 C161.418253,87.6487649 161.938828,90.7690769 162.179093,91.7691769 C163.460509,92.0092009 165.542808,92.2892289 167.625107,92.2892289 C185.805184,92.2892289 208.670434,80.1280128 221.885026,63.7663766 Z" id="Shape"></path>
        </g>
    </g>
</svg>